<?xml version="1.0" standalone="no"?>
<svg version="1.0" xmlns="http://www.w3.org/2000/svg" width="32px" height="32px" viewBox="0 0 824 824">
<g transform="translate(0.000000,719.000000) scale(0.100000,-0.100000)" stroke="none">
  <path fill="#2b5290" d="M4657 5870 c-20 -5 -56 -19 -80 -31 -28 -14 -300 -279 -836 -814
  l-794 -793 485 -488 c267 -269 493 -503 502 -521 20 -40 21 -105 2 -142 -22
  -42 -81 -89 -122 -97 -86 -16 -81 -21 -614 512 l-496 494 -290 -292 c-308
  -310 -324 -331 -345 -442 -13 -70 0 -137 37 -207 18 -31 133 -153 334 -353
  l308 -306 1098 0 1098 0 751 753 c852 853 810 804 810 957 0 146 40 99 -808
  952 -709 714 -756 759 -820 789 -73 34 -156 45 -220 29z"/>
  <path fill="#90b5f1" d="M2098 2126 c-99 -35 -160 -123 -161 -230 -1 -99 54 -177 153 -217 30
  -12 398 -14 2471 -14 l2435 0 60 30 c100 52 150 162 121 271 -17 64 -60 118
  -117 147 l-45 22 -2440 2 c-1996 2 -2447 0 -2477 -11z"/>
</g>
</svg>
